<svg width="32" height="32" viewBox="0 0 32 32" fill="none" xmlns="http://www.w3.org/2000/svg">
  <rect width="32" height="32" rx="16" fill="white" />
  <path fill-rule="evenodd" clip-rule="evenodd"
    d="M11.4166 19.3333H19.3333C20.9046 19.3333 21.6903 19.3333 22.1784 18.8452C22.6666 18.357 22.6666 17.5713 22.6666 16V11.8333C22.6666 10.262 22.6666 9.47631 22.1784 8.98816C21.6903 8.5 20.9046 8.5 19.3333 8.5H12.6666C11.0952 8.5 10.3096 8.5 9.82141 8.98816C9.33325 9.47631 9.33325 10.262 9.33325 11.8333V21.4167C9.33325 20.2661 10.266 19.3333 11.4166 19.3333ZM13.4999 10.6667C12.3953 10.6667 11.4999 11.5621 11.4999 12.6667C11.4999 13.7712 12.3953 14.6667 13.4999 14.6667L18.4999 14.6667C19.6045 14.6667 20.4999 13.7712 20.4999 12.6667C20.4999 11.5621 19.6045 10.6667 18.4999 10.6667L13.4999 10.6667Z"
    fill="#FC4994" />
  <path
    d="M13.4999 10.6667V9.66667V10.6667ZM13.4999 14.6667V13.6667V14.6667ZM18.4999 14.6667V15.6667V14.6667ZM18.4999 10.6667V9.66667V10.6667ZM19.3333 18.3333H11.4166V20.3333H19.3333V18.3333ZM21.4713 18.1381C21.444 18.1654 21.3718 18.2351 21.0288 18.2812C20.6571 18.3312 20.1472 18.3333 19.3333 18.3333V20.3333C20.0907 20.3333 20.7593 20.3355 21.2953 20.2634C21.86 20.1875 22.4247 20.0131 22.8855 19.5523L21.4713 18.1381ZM21.6666 16C21.6666 16.8139 21.6645 17.3238 21.6145 17.6955C21.5684 18.0385 21.4986 18.1108 21.4713 18.1381L22.8855 19.5523C23.3464 19.0914 23.5207 18.5268 23.5966 17.962C23.6687 17.4261 23.6666 16.7574 23.6666 16H21.6666ZM21.6666 11.8333V16H23.6666V11.8333H21.6666ZM21.4713 9.69526C21.4986 9.72257 21.5684 9.79483 21.6145 10.1378C21.6645 10.5095 21.6666 11.0194 21.6666 11.8333H23.6666C23.6666 11.0759 23.6687 10.4073 23.5966 9.8713C23.5207 9.30655 23.3464 8.7419 22.8855 8.28105L21.4713 9.69526ZM19.3333 9.5C20.1472 9.5 20.6571 9.50212 21.0288 9.5521C21.3718 9.59821 21.444 9.66795 21.4713 9.69526L22.8855 8.28105C22.4247 7.8202 21.86 7.64586 21.2953 7.56994C20.7593 7.49788 20.0907 7.5 19.3333 7.5V9.5ZM12.6666 9.5H19.3333V7.5H12.6666V9.5ZM10.5285 9.69526C10.5558 9.66795 10.6281 9.59821 10.971 9.5521C11.3428 9.50212 11.8526 9.5 12.6666 9.5V7.5C11.9092 7.5 11.2405 7.49788 10.7046 7.56994C10.1398 7.64586 9.57515 7.8202 9.1143 8.28105L10.5285 9.69526ZM10.3333 11.8333C10.3333 11.0194 10.3354 10.5095 10.3854 10.1378C10.4315 9.79483 10.5012 9.72257 10.5285 9.69526L9.1143 8.28105C8.65345 8.7419 8.47912 9.30655 8.40319 9.8713C8.33113 10.4073 8.33325 11.0759 8.33325 11.8333H10.3333ZM10.3333 21.4167V11.8333H8.33325V21.4167H10.3333ZM11.4166 18.3333C9.71371 18.3333 8.33325 19.7138 8.33325 21.4167H10.3333C10.3333 20.8184 10.8183 20.3333 11.4166 20.3333V18.3333ZM12.4999 12.6667C12.4999 12.1144 12.9476 11.6667 13.4999 11.6667V9.66667C11.8431 9.66667 10.4999 11.0098 10.4999 12.6667H12.4999ZM13.4999 13.6667C12.9476 13.6667 12.4999 13.219 12.4999 12.6667H10.4999C10.4999 14.3235 11.8431 15.6667 13.4999 15.6667V13.6667ZM18.4999 13.6667L13.4999 13.6667V15.6667L18.4999 15.6667V13.6667ZM19.4999 12.6667C19.4999 13.219 19.0522 13.6667 18.4999 13.6667V15.6667C20.1568 15.6667 21.4999 14.3235 21.4999 12.6667H19.4999ZM18.4999 11.6667C19.0522 11.6667 19.4999 12.1144 19.4999 12.6667H21.4999C21.4999 11.0098 20.1568 9.66667 18.4999 9.66667V11.6667ZM13.4999 11.6667L18.4999 11.6667V9.66667L13.4999 9.66667V11.6667ZM15.1666 22.5H11.4166V24.5H15.1666V22.5ZM8.33325 21.4167C8.33325 23.1195 9.71371 24.5 11.4166 24.5V22.5C10.8183 22.5 10.3333 22.015 10.3333 21.4167H8.33325Z"
    fill="#FC4994" />
  <path d="M22.6666 23.5H14.3333" stroke="#FC4994" stroke-width="2" stroke-linecap="round" />
</svg>
  