<svg width="101" height="32" viewBox="0 0 101 32" fill="none" xmlns="http://www.w3.org/2000/svg">
  <path
    d="M87.1353 0C87.0791 1.35509 90.1497 12.4286 84.2117 12.4431C81.9477 8.60649 79.089 4.46224 76.8315 2.50858L76.8033 2.53768C76.7545 2.5837 76.715 2.63794 76.6866 2.69771C76.1287 3.53321 74.2366 7.48209 74.4096 22.5336V29.6L97.6575 29.2862C108.565 18.645 87.6002 1.26156 87.1353 0ZM83.9306 23.4543C83.7144 22.571 84.3955 22.2447 85.4075 22.2073L86.0562 24.4768C85.0269 24.6805 84.2052 24.5413 83.9306 23.4543ZM86.6704 24.3168L86.7958 22.2717C88.1499 22.4633 89.4856 22.7601 90.7897 23.1592C89.6307 23.1384 88.0392 23.9011 86.6704 24.3168ZM94.7621 18.0817L95.2875 20.742C94.9978 20.8231 94.7967 20.8667 94.7967 20.8667C94.7967 20.8667 94.3836 19.2352 94.7621 18.0672V18.0817ZM97.4737 19.7132C97.331 20.0479 96.5633 20.3617 95.8887 20.5799L96.04 16.9511C97.3029 16.8534 97.7116 19.1355 97.4737 19.6987V19.7132Z"
    fill="#282828" />
  <g clip-path="url(#clip0_853_3097)">
    <path
      d="M35.5445 30.254H0.626953V3.19995H9.38946V5.99477H3.81351L3.96098 16.3371H8.75471V19.0726H3.96098L3.81351 27.4592H35.5445V30.254Z"
      fill="#282828" />
    <path
      d="M21.7981 25.8721H18.9934L13.8262 11.6114C13.9482 12.1483 14.0204 12.6965 14.0419 13.2482V25.8721H10.8984V3.19995H13.7161L18.8726 17.1788C18.7503 16.6419 18.6781 16.0937 18.6568 15.542V3.19995H21.7981V25.8721Z"
      fill="#282828" />
    <path
      d="M34.0463 23.9651C34.0463 25.2506 33.3973 25.894 32.0993 25.8954H25.3992C24.1383 25.8926 23.5078 25.2492 23.5078 23.9651V5.1451C23.5078 3.84833 24.149 3.19995 25.4313 3.19995H32.0993C33.3988 3.19995 34.0478 3.84833 34.0463 5.1451V9.6541H30.8405V5.91425H26.6922V23.1769H30.8469V16.0701H28.4768V13.3834H34.0463V23.9651Z"
      fill="#282828" />
    <path d="M46.5889 30.2158H36.7578V3.19995H39.9465V27.3935H46.5889V30.2158Z" fill="#282828" />
    <path d="M46.4659 25.8912H43.2793V3.19995H46.4659V25.8912Z" fill="#282828" />
    <path
      d="M58.9072 28.2961C58.9072 29.5844 58.266 30.2279 56.9837 30.2264H50.5721C49.2898 30.2264 48.6486 29.583 48.6486 28.2961V17.3648H51.8266V27.5672H55.7206V17.5258L49.3347 11.5314C49.105 11.3134 48.9243 11.0496 48.8046 10.7575C48.6849 10.4654 48.6289 10.1514 48.6401 9.83633V5.1451C48.6401 3.84833 49.2812 3.19995 50.5636 3.19995H56.9751C58.2575 3.19995 58.8986 3.83915 58.8986 5.11755V9.84268H55.7206V5.85916H51.8266V9.67317L58.2126 15.64C58.4447 15.8607 58.6267 16.1279 58.7465 16.4239C58.8663 16.7198 58.921 17.0377 58.9072 17.3563V28.2961Z"
      fill="#282828" />
    <path
      d="M71.9993 30.2646H68.7935V12.3112H64.4764V30.2582H61.2812V3.19995H64.4678V9.37441H68.7849V3.19995H71.9907L71.9993 30.2646Z"
      fill="#282828" />
    <path
      d="M0.641895 31.9915C0.60649 31.9969 0.570441 31.9969 0.535035 31.9915C0.423901 31.9915 0.235828 31.966 -0.0078125 31.9321C0.197358 31.966 0.415352 31.983 0.641895 31.9915Z"
      fill="#282828" />
    <path
      d="M9.17585 11.218C9.1705 11.2448 9.16263 11.2711 9.15234 11.2964C9.16303 11.2519 9.17372 11.2286 9.17585 11.218Z"
      fill="#282828" />
  </g>
  <defs>
    <clipPath id="clip0_853_3097">
      <rect width="72" height="28.8" fill="white" transform="translate(0 3.19995)" />
    </clipPath>
  </defs>
</svg>
  