<svg width="32" height="32" viewBox="0 0 32 32" fill="none" xmlns="http://www.w3.org/2000/svg">
  <g clip-path="url(#clip0_917_2949)">
    <path
      d="M0 16C0 7.16344 7.16344 0 16 0H26.6667C29.6122 0 32 2.38781 32 5.33333V16C32 24.8366 24.8366 32 16 32C7.16344 32 0 24.8366 0 16Z"
      fill="white" />
    <path
      d="M12.9912 -2C12.9295 -0.397697 16.3025 12.696 9.77975 12.7132C7.29274 8.17659 4.15251 3.2763 1.67263 0.966227L1.64175 1.00063C1.58815 1.05505 1.54467 1.11919 1.51348 1.18986C0.900641 2.17778 -1.1778 6.84707 -0.987771 24.6444V33L24.5497 32.6289C36.5311 20.0464 13.5019 -0.508285 12.9912 -2ZM9.47095 25.7331C9.23341 24.6887 9.98165 24.3028 11.0933 24.2586L11.8059 26.9422C10.6753 27.1831 9.77262 27.0184 9.47095 25.7331ZM12.4805 26.753L12.6183 24.3348C14.1057 24.5613 15.573 24.9123 17.0056 25.3841C15.7324 25.3596 13.9841 26.2615 12.4805 26.753ZM21.3691 19.3804L21.9463 22.5261C21.628 22.6219 21.4071 22.6735 21.4071 22.6735C21.4071 22.6735 20.9534 20.7443 21.3691 19.3632V19.3804ZM24.3478 21.3096C24.1911 21.7052 23.3478 22.0763 22.6067 22.3344L22.773 18.0435C24.1602 17.928 24.6091 20.6264 24.3478 21.2924V21.3096Z"
      fill="#282828" />
  </g>
  <defs>
    <clipPath id="clip0_917_2949">
      <path
        d="M0 16C0 7.16344 7.16344 0 16 0H26.6667C29.6122 0 32 2.38781 32 5.33333V16C32 24.8366 24.8366 32 16 32C7.16344 32 0 24.8366 0 16Z"
        fill="white" />
    </clipPath>
  </defs>
</svg>
  